<?xml version="1.0" standalone="no"?>
<!DOCTYPE svg PUBLIC "-//W3C//DTD SVG 20010904//EN"
 "http://www.w3.org/TR/2001/REC-SVG-20010904/DTD/svg10.dtd">
<svg version="1.0" xmlns="http://www.w3.org/2000/svg"
 width="1626.000000pt" height="1626.000000pt" viewBox="0 0 1626.000000 1626.000000"
 preserveAspectRatio="xMidYMid meet">
<metadata>
Created by potrace 1.11, written by Peter Selinger 2001-2013
</metadata>
<g transform="translate(0.000000,1626.000000) scale(0.100000,-0.100000)"
fill="#000000" stroke="none">
<path d="M7857 12684 c-1 -1 -96 -5 -212 -9 -115 -4 -228 -9 -250 -10 -22 -2
-85 -6 -140 -9 -96 -6 -179 -12 -275 -21 -25 -2 -81 -7 -125 -11 -44 -3 -87
-8 -95 -9 -8 -2 -49 -6 -90 -10 -41 -4 -82 -8 -90 -10 -8 -1 -44 -6 -80 -10
-36 -3 -76 -8 -90 -10 -14 -2 -45 -6 -70 -10 -25 -3 -56 -8 -70 -10 -14 -2
-45 -7 -70 -10 -25 -3 -56 -8 -70 -10 -14 -3 -38 -7 -55 -9 -16 -3 -70 -12
-120 -20 -49 -8 -103 -17 -120 -20 -16 -3 -57 -10 -90 -16 -33 -6 -73 -14 -90
-16 -33 -6 -261 -53 -285 -59 -8 -2 -49 -11 -90 -20 -41 -9 -100 -22 -130 -30
-30 -8 -66 -16 -80 -18 -59 -11 -459 -120 -625 -171 -338 -103 -788 -261 -940
-331 -16 -7 -109 -47 -206 -89 -572 -244 -1146 -572 -1604 -915 -95 -71 -261
-203 -315 -251 -14 -12 -54 -47 -90 -78 -107 -94 -349 -340 -445 -452 -50 -58
-93 -107 -96 -110 -5 -5 -22 -26 -127 -167 -75 -100 -267 -403 -256 -403 3 0
-3 -12 -14 -27 -22 -33 -108 -211 -129 -268 -8 -22 -19 -48 -25 -59 -17 -32
-85 -245 -112 -351 -34 -132 -58 -276 -71 -428 -12 -132 -6 -424 10 -502 2
-11 7 -42 10 -68 28 -236 127 -541 263 -814 297 -595 832 -1161 1552 -1640
117 -78 366 -233 374 -233 1 0 56 -31 122 -68 320 -183 799 -401 1244 -567
339 -126 862 -287 1190 -365 19 -5 44 -10 55 -13 70 -17 198 -47 217 -51 138
-30 420 -87 443 -91 17 -3 53 -10 80 -15 28 -5 64 -12 80 -15 57 -10 400 -64
445 -70 25 -3 56 -8 70 -10 14 -2 50 -7 80 -10 30 -3 64 -7 75 -9 11 -2 47 -7
80 -10 33 -4 96 -11 140 -16 91 -11 195 -21 365 -36 79 -7 97 -8 280 -19 63
-4 133 -8 155 -10 328 -25 1270 -24 1630 1 33 2 98 6 145 9 154 10 311 22 385
30 22 2 76 7 120 10 44 4 87 8 95 10 8 3 44 7 80 10 36 3 76 7 90 10 14 2 48
7 75 10 28 3 66 8 85 10 19 3 53 7 75 10 22 3 85 12 140 21 55 8 114 16 130
18 45 6 330 55 410 71 39 8 81 16 95 19 14 2 36 7 50 10 14 3 36 8 50 10 14 2
48 10 75 16 28 6 59 13 70 15 11 1 63 12 115 24 52 12 103 24 113 26 10 2 26
6 35 9 9 3 32 8 51 11 19 3 37 8 41 10 3 2 17 6 31 9 55 10 371 97 554 152
457 139 912 310 1315 495 181 83 569 283 622 320 14 11 29 19 32 19 6 0 77 42
146 85 19 12 84 53 144 90 185 116 543 377 628 458 7 7 29 25 48 41 119 97
304 279 476 467 169 184 391 512 511 754 75 150 178 420 199 520 1 6 9 37 17
70 8 33 18 79 22 102 6 41 6 42 -31 52 -21 6 -39 9 -39 8 -1 -1 -21 -54 -45
-117 -360 -974 -1399 -1862 -2870 -2453 -344 -138 -597 -226 -925 -321 -249
-72 -728 -192 -845 -212 -14 -2 -36 -7 -50 -10 -48 -11 -355 -69 -420 -79 -19
-3 -46 -7 -60 -10 -14 -3 -38 -7 -55 -9 -43 -6 -117 -18 -135 -21 -8 -2 -37
-6 -65 -9 -27 -4 -81 -12 -120 -17 -38 -6 -90 -12 -115 -15 -25 -2 -61 -6 -80
-9 -45 -6 -100 -12 -175 -20 -33 -3 -71 -8 -85 -10 -14 -2 -69 -6 -123 -10
-54 -4 -106 -8 -115 -10 -15 -2 -93 -8 -282 -20 -217 -14 -462 -20 -840 -19
-475 0 -637 5 -945 29 -27 2 -93 7 -145 10 -52 4 -106 8 -120 10 -14 2 -59 7
-100 10 -41 4 -88 9 -105 11 -16 2 -55 6 -85 9 -30 3 -93 11 -140 16 -47 6
-98 12 -115 14 -16 2 -46 6 -65 9 -19 3 -53 8 -75 11 -22 3 -67 10 -100 15
-33 5 -78 12 -100 15 -73 11 -99 16 -235 41 -161 29 -171 31 -235 44 -27 6
-59 12 -70 14 -219 44 -554 126 -800 196 -99 28 -187 52 -195 54 -36 9 -438
145 -468 158 l-34 15 54 33 c29 18 69 43 88 56 19 12 96 59 170 105 74 45 198
121 275 169 133 83 980 606 1720 1063 187 115 405 250 485 300 80 49 190 118
245 152 55 34 190 117 300 185 110 68 247 153 305 188 58 36 150 93 205 127
55 34 177 109 270 167 94 58 343 212 555 342 212 131 398 247 413 258 16 11
35 17 42 14 14 -5 307 -167 694 -383 62 -34 115 -63 117 -63 1 0 29 -15 61
-34 62 -35 123 -70 213 -119 30 -16 89 -48 130 -72 41 -23 102 -57 135 -75 33
-18 94 -52 135 -75 41 -23 107 -59 145 -80 39 -21 99 -54 135 -75 36 -20 90
-51 120 -67 83 -45 171 -94 210 -116 19 -11 55 -31 80 -45 25 -14 79 -44 120
-67 41 -23 107 -59 145 -80 39 -21 104 -57 145 -80 99 -55 164 -92 225 -125
28 -15 143 -79 257 -143 l207 -115 21 36 c17 29 19 37 8 47 -7 7 -105 88 -218
181 -113 92 -244 200 -291 238 -47 39 -107 89 -134 111 -27 22 -90 74 -140
115 -49 41 -139 115 -200 164 -60 50 -129 106 -151 125 -50 44 -62 53 -195
160 -57 46 -108 89 -114 95 -5 6 -32 29 -60 51 -27 21 -52 42 -55 45 -3 3 -39
32 -80 65 -41 33 -77 62 -80 65 -3 3 -72 61 -155 129 -82 67 -159 130 -170
139 -11 10 -45 37 -75 62 -30 25 -66 55 -80 66 -14 12 -70 59 -125 104 -55 45
-109 89 -120 98 -11 10 -108 89 -215 177 -107 88 -200 164 -206 170 -7 5 -31
26 -54 45 -24 19 -115 94 -204 167 l-160 132 -51 -28 c-27 -16 -156 -86 -285
-156 -129 -70 -260 -141 -290 -158 -75 -41 -178 -97 -220 -119 -19 -10 -48
-27 -65 -36 -16 -10 -66 -38 -110 -61 -44 -24 -134 -73 -200 -109 -66 -35
-154 -83 -195 -105 -41 -22 -79 -43 -85 -47 -5 -4 -46 -26 -90 -50 -44 -23
-172 -93 -285 -155 -113 -61 -245 -134 -295 -160 -49 -26 -94 -51 -100 -55 -5
-4 -50 -29 -100 -55 -49 -26 -112 -60 -140 -75 -27 -15 -70 -38 -93 -51 -24
-13 -65 -35 -90 -49 -26 -14 -78 -43 -117 -64 -38 -21 -117 -64 -175 -96 -58
-31 -136 -74 -175 -95 -38 -20 -113 -61 -165 -90 -52 -29 -122 -67 -155 -85
-62 -34 -128 -70 -205 -112 -25 -14 -81 -44 -125 -68 -92 -50 -177 -96 -220
-120 -16 -9 -70 -38 -120 -65 -49 -27 -130 -71 -180 -98 -49 -27 -119 -66
-155 -85 -36 -19 -139 -75 -230 -125 -91 -49 -187 -102 -215 -117 -27 -15
-126 -69 -220 -120 -93 -51 -192 -105 -220 -120 -308 -168 -397 -217 -440
-240 -68 -38 -485 -264 -565 -308 -36 -19 -69 -38 -74 -43 -12 -11 -28 -3
-131 59 -229 139 -499 330 -675 476 -208 173 -427 384 -412 398 22 21 7626
3817 7635 3811 15 -8 298 -204 312 -216 6 -4 111 -79 235 -165 124 -87 257
-180 295 -207 39 -27 135 -94 215 -150 80 -55 235 -164 345 -241 110 -78 232
-163 270 -190 39 -27 302 -211 583 -409 282 -198 523 -367 535 -375 12 -8 135
-94 272 -190 138 -97 286 -201 330 -231 233 -162 791 -554 795 -558 3 -3 13
-10 22 -16 19 -11 808 -562 838 -585 21 -16 30 -23 197 -140 l111 -78 26 27
c14 15 26 30 26 33 0 5 -140 144 -275 273 -38 37 -180 174 -315 305 -135 130
-276 267 -315 304 -38 38 -168 163 -289 279 -120 117 -253 245 -295 286 -42
40 -191 185 -331 321 -140 136 -274 264 -296 286 -23 21 -151 145 -284 274
-355 344 -357 345 -919 888 -42 41 -174 169 -295 285 -524 508 -858 831 -927
897 -67 64 -234 226 -563 545 -130 127 -243 231 -249 233 -7 1 -161 -59 -342
-134 -324 -133 -475 -195 -705 -289 -63 -26 -128 -53 -145 -60 -16 -7 -55 -23
-85 -35 -64 -26 -97 -39 -165 -68 -27 -12 -167 -69 -310 -127 -143 -59 -279
-115 -302 -126 -24 -10 -47 -19 -51 -19 -5 0 -22 -6 -38 -14 -16 -8 -272 -114
-569 -236 -297 -121 -549 -225 -560 -230 -11 -5 -200 -83 -420 -174 -447 -183
-452 -185 -480 -197 -53 -22 -274 -113 -395 -162 -141 -58 -417 -171 -460
-190 -14 -6 -27 -11 -30 -11 -3 -1 -41 -16 -85 -35 -196 -81 -321 -133 -475
-196 -91 -37 -178 -73 -195 -80 -53 -22 -172 -71 -475 -195 -162 -67 -380
-157 -485 -200 -104 -43 -368 -151 -585 -240 -217 -89 -408 -167 -425 -175
-16 -7 -79 -34 -140 -58 -60 -25 -123 -50 -140 -57 -16 -7 -39 -16 -50 -20
-11 -4 -36 -15 -55 -23 -19 -8 -87 -36 -150 -62 -63 -26 -130 -54 -148 -63
-43 -19 -50 -9 -46 66 4 90 16 224 20 246 2 12 7 39 10 61 25 196 113 468 225
701 70 145 200 369 261 449 5 6 40 53 79 105 66 87 114 147 209 255 57 66 319
325 400 396 300 262 711 550 1073 751 51 28 115 63 142 78 139 77 385 194 680
325 481 213 1371 488 1910 591 46 9 68 13 83 18 15 4 40 9 117 21 11 2 67 13
125 24 58 11 121 22 140 24 19 3 78 12 130 21 52 8 115 18 140 21 25 3 56 8
70 10 14 2 49 7 79 10 30 4 61 8 70 10 27 4 139 17 281 30 30 3 73 7 95 10 22
2 73 7 113 10 39 3 102 7 140 10 351 29 1018 39 1450 22 152 -6 192 -5 193 5
0 7 3 25 5 41 3 17 0 27 -8 28 -7 1 -29 3 -48 4 -19 1 -62 5 -95 8 -60 6 -137
12 -295 22 -47 3 -110 8 -140 10 -192 12 -1084 28 -1093 19z"/>
</g>
</svg>
